<svg width="32" height="32" viewBox="0 0 32 32" fill="none" xmlns="http://www.w3.org/2000/svg">
<path d="M14.9236 4.01998C14.8861 4.03406 14.8016 4.09035 14.7453 4.14664C14.4967 4.36713 14.5014 4.31084 14.5014 7.03172V9.56965L11.5741 9.57903C8.69839 9.59311 8.64209 9.59311 8.51543 9.69162C8.20112 9.92618 8.19174 9.94963 8.17767 11.0145C8.16359 11.9481 8.16828 11.995 8.27149 12.192C8.4779 12.5908 8.31371 12.572 11.6022 12.572H14.5014V20.031C14.5014 28.1373 14.4826 27.6072 14.7594 27.8652C14.8861 27.9825 14.8861 27.9825 15.9463 27.9966C16.9455 28.006 17.0205 28.0013 17.166 27.9122C17.2504 27.8606 17.3583 27.7527 17.4099 27.6682C17.5037 27.5134 17.5037 27.4149 17.5037 20.0404V12.572H20.4029C23.6914 12.572 23.5272 12.5908 23.7336 12.192C23.8368 11.995 23.8415 11.9481 23.8274 11.0145C23.8134 9.94963 23.804 9.92618 23.4897 9.69162C23.363 9.59311 23.3067 9.59311 20.431 9.57903L17.5037 9.56965V7.03172C17.5037 4.29207 17.5131 4.37651 17.2457 4.12788L17.1191 4.0106L16.0588 4.00122C15.4725 3.99653 14.9611 4.00591 14.9236 4.01998Z" fill="#333B48"/>
</svg>
