<svg width="32" height="32" viewBox="0 0 32 32" fill="none" xmlns="http://www.w3.org/2000/svg">
<path d="M14.9741 4.09207C11.3436 4.87717 9.43837 8.73265 11.0236 12.0881C11.4986 13.0882 12.2337 13.8983 13.2088 14.4884C13.3939 14.6034 13.5789 14.6934 13.6139 14.6934C13.7639 14.6934 14.339 13.9733 14.454 13.6483C14.494 13.5283 14.474 13.4883 14.269 13.2682C14.054 13.0332 14.0239 13.0182 13.7789 13.0132C13.3639 12.9982 13.0838 12.8032 12.9738 12.4431C12.9538 12.3731 12.8288 12.1081 12.6938 11.853C12.4387 11.353 12.3287 10.9679 12.3787 10.7529C12.4287 10.5529 12.5888 10.3029 12.6988 10.2678C12.7838 10.2428 12.7888 10.2028 12.7638 9.82779C12.7088 9.02269 12.9238 8.2926 13.3889 7.70753C13.5039 7.56751 13.7839 7.30247 14.0239 7.11745C14.259 6.93243 14.459 6.7374 14.474 6.67739C14.489 6.61739 14.524 6.45237 14.549 6.31735C14.619 5.99231 14.799 5.69227 15.0541 5.47224C15.3491 5.22221 15.6842 5.1222 16.1992 5.1222C17.1243 5.1272 17.6444 5.59226 17.8694 6.60239C17.8894 6.6974 18.0145 6.82241 18.2645 7.00744C19.0096 7.56251 19.4746 8.22759 19.6047 8.91768C19.6347 9.0827 19.6497 9.43274 19.6397 9.69778C19.6197 10.1778 19.6197 10.1778 19.7597 10.2578C20.1597 10.4879 20.2047 11.0379 19.8797 11.693C19.7747 11.8981 19.6747 12.0881 19.6497 12.1181C19.6297 12.1431 19.5847 12.2581 19.5546 12.3731C19.4196 12.8782 19.0896 13.1082 18.6495 12.9982L18.4095 12.9382L18.0595 13.2982L17.7044 13.6583L17.8094 13.8633C17.9294 14.0983 18.3045 14.6434 18.4145 14.7334C18.4695 14.7834 18.5445 14.7634 18.7795 14.6384C20.2847 13.8333 21.3549 12.3881 21.6799 10.7079C21.7949 10.1128 21.7949 9.1027 21.6799 8.55263C21.4349 7.39749 20.9848 6.54238 20.1847 5.70727C19.4496 4.94718 18.5645 4.42211 17.5644 4.15708C16.8793 3.97705 15.6442 3.94705 14.9741 4.09207Z" fill="#333B48"/>
<path d="M15.7862 5.59717C15.3161 5.70719 15.0961 5.94722 14.9761 6.46728C14.8611 6.96235 14.8011 7.04736 14.311 7.43741C13.886 7.78245 13.5959 8.10749 13.4309 8.42753C13.1959 8.89259 13.1259 9.84271 13.3009 10.1277C13.3559 10.2178 13.4359 10.2928 13.4759 10.2928C13.5359 10.2928 13.5509 10.2128 13.5509 9.85271C13.5509 9.24764 13.6459 8.9926 14.001 8.63256C14.461 8.1725 14.7861 8.13249 15.4712 8.45253C15.8712 8.64256 15.9662 8.66756 16.2763 8.66256C16.5763 8.66256 16.6813 8.63756 17.0014 8.47754C17.2964 8.32752 17.4314 8.29251 17.6614 8.29251C18.0315 8.29251 18.1815 8.35252 18.4415 8.60755C18.7466 8.90759 18.8516 9.22263 18.8516 9.84271C18.8516 10.1177 18.8716 10.3428 18.8966 10.3428C18.9216 10.3428 19.0016 10.2728 19.0716 10.1878C19.1916 10.0477 19.2016 9.99773 19.2016 9.57268C19.2016 8.60255 18.8816 7.98748 18.0665 7.4074C17.6364 7.10236 17.5214 6.94234 17.3914 6.50229C17.2414 5.99222 16.9564 5.68219 16.5613 5.59717C16.2563 5.53217 16.0562 5.53217 15.7862 5.59717Z" fill="#333B48"/>
<path d="M14.5255 8.75255C14.3505 8.84756 14.1954 9.01258 14.0904 9.20761C14.0004 9.38763 13.9954 9.48764 14.0104 10.7128L14.0254 12.023L14.2104 12.398C14.4405 12.8631 14.8205 13.2381 15.2856 13.4581C15.6056 13.6082 15.6606 13.6182 16.1757 13.6182C16.6307 13.6132 16.7758 13.5932 17.0158 13.4981C17.5609 13.2831 18.0309 12.8081 18.2609 12.243C18.366 11.988 18.376 11.8729 18.391 10.6978C18.406 9.60766 18.396 9.39763 18.326 9.21261C18.1359 8.70754 17.7159 8.60753 17.0958 8.91257C16.4857 9.21261 16.0257 9.20261 15.3256 8.86756C14.9555 8.68754 14.7055 8.65254 14.5255 8.75255Z" fill="#333B48"/>
<path d="M19.2497 10.6126C19.2197 10.6576 19.1147 10.7176 19.0197 10.7526L18.8497 10.8126V11.2677C18.8497 11.5627 18.8146 11.8677 18.7496 12.1178C18.6946 12.3278 18.6646 12.5228 18.6796 12.5478C18.7646 12.6879 19.0997 12.5128 19.0997 12.3328C19.0997 12.2928 19.2247 12.0128 19.3747 11.7177C19.5947 11.2927 19.6498 11.1377 19.6498 10.9426C19.6498 10.8126 19.6197 10.6826 19.5897 10.6526C19.4647 10.5576 19.3147 10.5376 19.2497 10.6126Z" fill="#333B48"/>
<path d="M12.8758 10.7133C12.7658 10.8783 12.8458 11.2084 13.1208 11.7184C13.2408 11.9385 13.3658 12.2035 13.3958 12.3085C13.4408 12.4385 13.4959 12.5035 13.5809 12.5235C13.7609 12.5686 13.7759 12.5235 13.6759 12.2835C13.6109 12.1285 13.5759 11.8885 13.5609 11.4384L13.5409 10.8133L13.3058 10.7033C13.0158 10.5633 12.9708 10.5633 12.8758 10.7133Z" fill="#333B48"/>
<path d="M14.7367 14.063C14.5817 14.358 14.0516 15.0131 13.9316 15.0581C13.8616 15.0881 13.8516 15.3031 13.8516 16.8683C13.8516 18.3385 13.8616 18.6436 13.9216 18.6436C14.1066 18.6436 14.9817 18.3835 15.3117 18.2285C16.5469 17.6584 17.437 16.6083 17.8271 15.2581L17.9371 14.8731L17.672 14.483C17.532 14.268 17.402 14.038 17.382 13.973L17.352 13.8529L16.967 13.978C16.4369 14.148 15.7418 14.128 15.2467 13.928C15.0667 13.8529 14.9117 13.7929 14.8967 13.7929C14.8867 13.7929 14.8117 13.913 14.7367 14.063Z" fill="#333B48"/>
<path d="M18.2841 15.2786C18.2741 15.3036 18.2241 15.4437 18.1741 15.5937C18.0591 15.9637 17.759 16.5638 17.494 16.9488C16.8139 17.959 15.5488 18.7791 14.2886 19.0241L13.8485 19.1091V19.7042C13.8485 20.3793 13.8285 20.3543 14.3036 20.2143C14.8287 20.0592 15.4237 19.6942 15.9388 19.2191C16.2739 18.9091 16.4189 18.8741 16.5089 19.0741C16.5689 19.2041 16.5539 19.2241 16.2088 19.5492C15.5538 20.1643 14.6837 20.6443 14.0886 20.7243L13.8485 20.7593V21.3044C13.8485 21.9495 13.7935 21.9295 14.5486 21.5344C16.5789 20.4843 18.1091 18.514 18.7442 16.1537C18.8792 15.6387 18.8842 15.5837 18.8092 15.5587C18.7642 15.5387 18.6291 15.4637 18.5141 15.3836C18.3991 15.3086 18.2941 15.2586 18.2841 15.2786Z" fill="#333B48"/>
<path d="M13.1501 15.5687C13.0801 15.6087 12.895 15.6537 12.74 15.6737L12.45 15.7087V16.7888C12.45 17.929 12.44 17.994 12.225 17.994C12.0149 17.994 11.9999 17.924 11.9999 16.8338C11.9999 16.2638 11.9799 15.7937 11.9599 15.7937C11.9349 15.7937 11.7849 15.8187 11.6299 15.8537L11.3398 15.9087L11.3748 18.5891C11.3949 20.0642 11.4199 21.2844 11.4299 21.3044C11.4499 21.3344 12.1349 21.7294 12.26 21.7845C12.285 21.7945 12.3 21.3994 12.3 20.9093C12.3 20.2793 12.32 19.9942 12.36 19.9542C12.45 19.8642 12.64 19.8842 12.7 19.9892C12.73 20.0492 12.75 20.4893 12.75 21.0794V22.0745L13.0301 22.2345C13.1851 22.3245 13.3301 22.3945 13.3551 22.3945C13.3801 22.3945 13.4001 20.9844 13.4001 18.9441C13.4001 15.2486 13.4151 15.4187 13.1501 15.5687Z" fill="#333B48"/>
<path d="M19.2519 15.9739C19.0319 16.954 18.3618 18.4492 17.7717 19.2693C16.8416 20.5695 15.3964 21.7346 14.0563 22.2597C13.8512 22.3447 13.8412 22.3547 13.8562 22.5297C13.8712 22.6898 13.9013 22.7348 14.0713 22.8298C14.4213 23.0248 14.7664 22.9698 15.6115 22.5797C16.4616 22.1847 17.4017 21.4346 17.6967 20.9045C17.8167 20.6895 17.9268 20.6195 18.0618 20.6745C18.3118 20.7695 18.1418 21.1396 17.5917 21.7196C17.1817 22.1497 16.5666 22.5947 16.0065 22.8698C15.7815 22.9798 15.5965 23.0848 15.5965 23.0998C15.5965 23.1148 15.6865 23.1698 15.8015 23.2198C15.9615 23.2948 16.0215 23.2998 16.0865 23.2548C16.6316 22.8698 17.0466 22.7498 17.5467 22.8398L17.8768 22.8998L19.557 21.9247C20.4771 21.3846 21.2672 20.9445 21.3072 20.9445C21.4172 20.9445 21.5072 21.0695 21.4872 21.1996C21.4772 21.2846 21.2422 21.4446 20.5021 21.8746C19.967 22.1847 19.507 22.4647 19.482 22.4897C19.3819 22.5897 20.3171 22.7948 20.8721 22.7948C21.1572 22.7948 21.2472 22.8148 21.3122 22.8848C21.3622 22.9348 21.3972 23.0048 21.3972 23.0348C21.3972 23.3598 20.202 23.3048 19.3119 22.9348L18.9519 22.7898L18.6519 22.9548C18.4818 23.0448 18.3468 23.1398 18.3468 23.1648C18.3468 23.1898 18.4368 23.3048 18.5418 23.4198C18.6519 23.5399 18.7669 23.7249 18.8019 23.8399L18.8619 24.0449H19.597H20.3271L21.5472 23.5699C22.2173 23.3098 22.8524 23.0348 22.9574 22.9598C23.3474 22.6898 23.5975 22.1947 23.5975 21.6846C23.5975 21.4196 22.7724 17.9492 22.6024 17.4941C22.5423 17.3391 22.4273 17.104 22.3373 16.969L22.1773 16.719L22.1123 17.1691C21.9673 18.1592 21.5922 19.1593 21.0922 19.8994C20.8271 20.2994 20.162 20.9845 19.817 21.2246C19.542 21.4146 19.3769 21.4246 19.3219 21.2496C19.2769 21.1046 19.3319 21.0345 19.627 20.8195C20.002 20.5495 20.5071 20.0144 20.7871 19.5744C21.2722 18.8293 21.6272 17.7441 21.6822 16.834L21.7122 16.3439L21.3922 16.1989C21.2172 16.1139 21.0172 16.0339 20.9471 16.0189C20.8221 15.9889 20.8171 15.9939 20.7571 16.424C20.5921 17.5341 19.967 18.8393 19.3419 19.3643C19.2019 19.4843 19.1719 19.4893 19.0769 19.4293C18.9019 19.3143 18.9269 19.2143 19.2119 18.8793C19.817 18.1642 20.2471 17.129 20.3321 16.1889L20.3621 15.8589L20.067 15.8039C19.902 15.7739 19.667 15.7339 19.542 15.7189L19.3169 15.6839L19.2519 15.9739Z" fill="#333B48"/>
<path d="M10.4687 16.2439C9.93363 16.509 9.55358 16.989 9.33356 17.6691C9.14353 18.2442 8.39844 21.4596 8.39844 21.6846C8.39844 22.1947 8.64847 22.6898 9.03852 22.9648C9.14853 23.0398 9.78861 23.3098 10.4637 23.5699L11.6939 24.0449H12.4089H13.124L13.214 23.7999C13.2691 23.6449 13.3791 23.4849 13.5241 23.3548L13.7441 23.1448L13.4091 22.9498C13.224 22.8448 12.544 22.4597 11.8989 22.0947C11.2538 21.7296 10.7037 21.4146 10.6787 21.3896C10.6237 21.3396 10.8387 20.9845 10.9038 21.0245C10.9588 21.0545 10.9588 20.2694 10.9138 17.8541C10.8888 16.554 10.8687 16.0939 10.8237 16.0939C10.7887 16.0939 10.6337 16.1589 10.4687 16.2439Z" fill="#333B48"/>
<path d="M16.8569 23.3148C16.7419 23.3548 16.5669 23.4448 16.4719 23.5199C16.3219 23.6299 16.2969 23.6799 16.2969 23.8499V24.0449L17.332 24.0349C17.9971 24.0249 18.3721 23.9999 18.3821 23.9649C18.4121 23.8799 18.0521 23.4999 17.8421 23.3948C17.587 23.2598 17.132 23.2248 16.8569 23.3148Z" fill="#333B48"/>
<path d="M14.0597 23.4995C13.8297 23.6145 13.5696 23.9046 13.6246 23.9946C13.6696 24.0696 15.7099 24.0646 15.7899 23.9846C15.8999 23.8746 15.8549 23.7496 15.6649 23.6495C15.1298 23.3795 14.4397 23.3145 14.0597 23.4995Z" fill="#333B48"/>
<path d="M7.50775 24.5896C7.02269 24.7546 6.60764 25.1896 6.46762 25.6797C6.3476 26.0848 6.38761 26.6848 6.55763 27.0549C6.71265 27.3849 7.00769 27.695 7.33773 27.855C7.56776 27.965 7.61276 27.97 9.24797 27.985L10.9232 28L11.4983 27.855C12.7884 27.5249 13.9286 26.9949 15.3737 26.0448C16.2539 25.4697 17.414 24.8296 18.0241 24.5846C18.2091 24.5096 17.8391 24.5046 12.9984 24.4996C8.06282 24.4996 7.75778 24.5046 7.50775 24.5896ZM8.10282 25.4447C8.22784 25.5147 8.22784 25.7247 8.09782 25.7947C7.94781 25.8747 7.74778 25.8347 7.66777 25.7197C7.52275 25.4997 7.83779 25.3047 8.10282 25.4447ZM12.9384 25.4547C13.0184 25.5347 13.0134 25.7197 12.9284 25.7897C12.8834 25.8297 12.2934 25.8397 10.8482 25.8347C8.88292 25.8197 8.83292 25.8197 8.76791 25.7197C8.7079 25.6297 8.7129 25.5997 8.77791 25.5047L8.85292 25.3947H10.8682C12.3634 25.3947 12.8934 25.4097 12.9384 25.4547Z" fill="#333B48"/>
<path d="M19.5659 24.5992C18.2457 24.8793 17.1306 25.3993 15.4504 26.5195C14.7203 27.0046 13.5451 27.6296 12.945 27.8497L12.625 27.9697L18.4257 27.9847C22.5663 27.9947 24.2815 27.9847 24.4265 27.9447C24.9266 27.8047 25.3766 27.3396 25.5366 26.7995C25.6416 26.4345 25.6066 25.8044 25.4666 25.4844C25.3166 25.1593 24.9916 24.8193 24.6565 24.6593L24.3765 24.5192L22.2012 24.5092C20.211 24.4992 19.9859 24.5092 19.5659 24.5992Z" fill="#333B48"/>
</svg>
