<svg width="12" height="12" viewBox="0 0 16 16" fill="none" xmlns="http://www.w3.org/2000/svg">
<g clip-path="url(#clip0_472_1175)">
<path d="M8 0C3.58862 0 0 3.58862 0 8C0 12.4114 3.58862 16 8 16C12.4114 16 16 12.4114 16 8C16 3.58862 12.4114 0 8 0ZM10.946 10.0033C11.2067 10.264 11.2067 10.6853 10.946 10.946C10.8842 11.008 10.8107 11.0572 10.7298 11.0907C10.6489 11.1242 10.5622 11.1414 10.4746 11.1413C10.304 11.1413 10.1333 11.076 10.0033 10.946L8 8.94263L5.99672 10.9461C5.93489 11.0081 5.86142 11.0572 5.78053 11.0907C5.69964 11.1243 5.61293 11.1415 5.52537 11.1414C5.43781 11.1415 5.35109 11.1243 5.27019 11.0907C5.18929 11.0572 5.11581 11.0081 5.05397 10.9461C4.79334 10.6853 4.79334 10.264 5.05397 10.0033L7.05737 8L5.05394 5.99672C4.79331 5.73597 4.79331 5.31469 5.05394 5.05397C5.31469 4.79334 5.73597 4.79334 5.99672 5.05397L8 7.05737L10.0033 5.05394C10.264 4.79331 10.6853 4.79331 10.946 5.05394C11.2067 5.31469 11.2067 5.73597 10.946 5.99672L8.94263 8L10.946 10.0033Z" fill="#49556D"/>
</g>
<defs>
<clipPath id="clip0_472_1175">
<rect width="16" height="16" fill="white"/>
</clipPath>
</defs>
</svg>
