<svg width="32" height="32" viewBox="0 0 32 32" fill="none" xmlns="http://www.w3.org/2000/svg">
<path d="M18.208 5.24734L16.9609 6.49445L18.2236 7.75715L19.4811 9.01465L20.7386 7.75715L22.0013 6.49445L20.7542 5.24734C20.0683 4.56143 19.4967 4.00023 19.4811 4.00023C19.4655 4.00023 18.894 4.56143 18.208 5.24734Z" fill="#333B48"/>
<path d="M14.5469 7.45012C14.5469 7.6164 14.7599 8.38545 14.947 8.88429C15.5653 10.5367 16.5682 11.7423 17.8257 12.3398C18.548 12.6828 18.9118 12.7503 20.0549 12.7503C20.798 12.7555 21.2189 12.7295 21.6346 12.662C22.8765 12.4541 23.947 12.054 24.8251 11.4668C25.3136 11.1395 26.0826 10.438 26.0826 10.3185C26.0826 10.2873 25.5318 9.7105 24.8511 9.02979L23.6248 7.80347L23.2351 8.21397C22.3517 9.1545 21.1825 9.68452 19.6808 9.82482C18.0284 9.98591 16.5215 9.48706 15.4095 8.42182C15.2172 8.23476 14.9418 7.91778 14.8015 7.72032C14.6612 7.52287 14.5469 7.40335 14.5469 7.45012Z" fill="#333B48"/>
<path d="M10.9089 10.7864C10.0307 10.9474 8.70044 11.4619 7.82746 11.9815C7.3494 12.2673 6.75183 12.6986 6.75183 12.7557C6.75183 12.7869 7.30783 13.3637 7.98855 14.0392L9.22007 15.2708L9.53185 15.0369C10.7166 14.138 12.2391 13.8885 13.3355 14.4134C13.7045 14.5952 14.0526 14.9174 14.1098 15.1408C14.1877 15.4578 13.8656 15.8995 13.3823 16.1333C12.8523 16.388 12.608 16.4191 11.0544 16.4191H9.60979V18.1079V19.7967H11.0855C11.8962 19.7967 12.6808 19.8175 12.8315 19.8487C13.5382 19.9838 14.115 20.4359 14.3384 21.0334C14.6138 21.7609 14.5878 22.6547 14.2813 23.273C13.9955 23.8394 13.3095 24.3383 12.5561 24.5201C12.0676 24.6397 11.2726 24.6864 10.7374 24.6293C9.38115 24.4786 8.27434 23.9226 7.2195 22.8625C6.21661 21.8544 5.43717 20.5606 4.87077 18.9653L4.6993 18.4717L4.68371 18.7834C4.65773 19.1991 4.76165 20.3995 4.88117 21.0854C5.55668 25.0242 7.7807 27.56 10.9089 27.9549C12.0001 28.09 13.19 27.9185 14.1617 27.482C15.6323 26.8273 16.921 25.3048 17.3575 23.7199C17.5601 22.9717 17.425 22.0519 16.921 20.7944C16.8015 20.4878 16.6975 20.2228 16.6871 20.1968C16.6767 20.176 16.8067 20.1605 16.9781 20.1605C17.1496 20.1605 17.477 20.1241 17.7056 20.0825C19.145 19.8071 20.2882 19.0173 21.7483 17.3025C22.6265 16.2632 22.8603 16.0866 23.3176 16.097C24.3828 16.1229 25.1987 17.3233 25.2039 18.8614C25.209 20.1033 24.7258 21.2673 23.8528 22.135C23.3696 22.6183 23.0578 22.8054 22.4966 22.9457C21.4002 23.2263 19.8932 22.5923 18.6305 21.3244L18.22 20.9139L18.2564 21.3712C18.3759 22.8833 18.8852 24.385 19.5503 25.1905C20.3661 26.1778 21.5665 26.5623 22.8395 26.2401C24.5439 25.8088 26.1028 24.0421 26.9082 21.6258C27.4227 20.0929 27.4538 18.7575 27.0122 17.3752C26.3938 15.437 25.1571 14.1484 23.4839 13.6859C22.9539 13.5404 21.9094 13.5508 21.4054 13.7067C20.0595 14.1328 18.8488 15.1253 16.8742 17.4324C16.0688 18.3729 15.6219 18.825 15.44 18.8822C15.1698 18.9705 14.6502 18.7107 14.354 18.3366L14.1877 18.1235L14.5151 17.6974C15.2218 16.7881 15.8869 15.6813 16.1103 15.0213C16.3078 14.4497 16.2143 13.7171 15.8453 12.974C15.3309 11.9503 14.5099 11.2332 13.4291 10.8747C13.0601 10.7552 12.9146 10.7396 12.182 10.724C11.5948 10.7136 11.2206 10.7292 10.9089 10.7864Z" fill="#333B48"/>
</svg>
