<svg width="32" height="32" viewBox="0 0 32 32" fill="none" xmlns="http://www.w3.org/2000/svg">
<path d="M14.0283 4.09375C10.0111 4.77344 6.63143 7.39844 4.9908 11.125C4.58299 12.0484 4.32518 12.9156 4.13299 14.0078C4.00643 14.7203 3.95955 16.4359 4.03924 17.2281C4.32986 20.0078 5.52049 22.4922 7.51268 24.4844C9.24236 26.2187 11.2767 27.3062 13.6533 27.7844C14.4877 27.9531 15.0267 28 16.0299 28C17.8533 28 19.4424 27.6625 21.008 26.9453C22.3861 26.3125 23.4127 25.6 24.5095 24.5078C25.8455 23.1812 26.7314 21.7937 27.3736 20.0312C27.6642 19.2297 27.997 17.725 27.997 17.2188C27.997 17.0687 27.9736 17.1016 27.758 17.5234C25.822 21.3344 21.7064 23.4719 17.4971 22.8625C15.3783 22.5531 13.4799 21.5969 11.9424 20.0547C10.0299 18.1469 9.0408 15.7469 9.0408 13.0469C9.04549 10.3891 10.0486 7.97969 11.9424 6.08594C12.7299 5.29375 13.522 4.72187 14.5205 4.21562L14.9424 4L14.7314 4.00469C14.6142 4.00937 14.3002 4.04688 14.0283 4.09375Z" fill="#333B48"/>
<path d="M18.3423 7.79666C17.672 8.97323 17.3532 9.49354 17.2876 9.5076C17.236 9.52166 16.3829 9.69979 15.3939 9.91073C14.4001 10.117 13.5798 10.2904 13.5704 10.2998C13.561 10.3139 14.1423 10.9701 14.8595 11.7623C15.9235 12.9342 16.1626 13.2201 16.1532 13.3232C16.1485 13.3889 16.0595 14.2514 15.9517 15.2404C15.8439 16.2295 15.7642 17.0498 15.7782 17.0592C15.7876 17.0732 16.5939 16.7217 17.5642 16.2857L19.3267 15.4935L21.0939 16.2857C22.0642 16.7217 22.8657 17.0685 22.8751 17.0592C22.8892 17.0451 22.8095 16.2295 22.7064 15.2404C22.5985 14.2514 22.5048 13.3889 22.5001 13.3232C22.4907 13.2201 22.7204 12.9482 23.7939 11.7576C24.511 10.9701 25.0923 10.3139 25.0829 10.2998C25.0689 10.2904 24.2532 10.1123 23.2595 9.90604C22.2704 9.69979 21.4173 9.52166 21.3657 9.5076C21.3001 9.49354 20.9814 8.97791 20.311 7.79666C19.7814 6.86854 19.3407 6.10916 19.3267 6.10916C19.3126 6.10916 18.872 6.86854 18.3423 7.79666Z" fill="#333B48"/>
</svg>
