<svg width="32" height="32" viewBox="0 0 32 32" fill="none" xmlns="http://www.w3.org/2000/svg">
<path d="M15.078 6.35922C14.9739 5.11529 14.0314 4.13337 12.8381 4.05041C12.12 4.00119 11.1343 3.97776 9.78402 4.03494C8.43369 4.09212 7.44473 4.19946 6.71966 4.30913C5.51931 4.49427 4.49427 5.51978 4.30913 6.71966C4.19946 7.44473 4.09493 8.43416 4.03494 9.78402C3.97495 11.1339 4.00026 12.1195 4.05041 12.8381C4.13384 14.0314 5.11529 14.9739 6.35922 15.078C7.10914 15.1389 8.13279 15.182 9.53654 15.1778C10.9403 15.1736 11.9668 15.1249 12.7148 15.0574C13.3183 15.0037 13.8836 14.7395 14.3121 14.3111C14.7405 13.8827 15.0046 13.3173 15.0583 12.7139C15.1258 11.9663 15.175 10.9398 15.1788 9.5356C15.1825 8.13138 15.1389 7.1068 15.078 6.35922ZM27.6907 6.71966C27.5056 5.51978 26.48 4.49427 25.2802 4.30913C24.5551 4.19946 23.5657 4.09493 22.2158 4.03494C20.866 3.97495 19.8803 4.00026 19.1618 4.05041C17.9685 4.13337 17.0259 5.11529 16.9218 6.35922C16.8609 7.10914 16.8178 8.13279 16.822 9.53654C16.8262 10.9403 16.875 11.9668 16.9425 12.7148C16.9961 13.3183 17.2602 13.8837 17.6886 14.3122C18.117 14.7406 18.6825 15.0047 19.286 15.0583C20.0359 15.1258 21.06 15.175 22.4642 15.1788C23.8685 15.1825 24.894 15.1399 25.6415 15.0789C26.885 14.9749 27.8669 14.0318 27.9504 12.839C28.0005 12.1205 28.023 11.1353 27.9658 9.78495C27.9086 8.43463 27.8004 7.44473 27.6907 6.71966ZM15.0574 19.285C15.0038 18.6815 14.7396 18.1161 14.3112 17.6877C13.8828 17.2593 13.3174 16.9951 12.7139 16.9415C11.9639 16.874 10.9398 16.8248 9.5356 16.8211C8.13138 16.8173 7.10586 16.86 6.35829 16.9209C5.11576 17.0259 4.13337 17.9685 4.05041 19.1618C4.00119 19.8803 3.97776 20.8655 4.03494 22.2158C4.09212 23.5661 4.19946 24.5551 4.30913 25.2802C4.49427 26.48 5.51978 27.5056 6.71966 27.6907C7.44333 27.8004 8.43275 27.9063 9.78261 27.9649C11.1325 28.0235 12.1181 27.9996 12.8367 27.9494C14.029 27.8665 14.9725 26.8841 15.0766 25.6406C15.1375 24.893 15.1806 23.867 15.1764 22.4633C15.1722 21.0595 15.1249 20.0307 15.0574 19.285ZM27.9518 19.1618C27.8688 17.9694 26.8864 17.0259 25.643 16.9218C24.8954 16.8609 23.8694 16.8178 22.4656 16.822C21.0619 16.8262 20.035 16.875 19.2874 16.9425C18.6839 16.9961 18.1184 17.2602 17.69 17.6886C17.2616 18.117 16.9975 18.6825 16.9439 19.286C16.8764 20.0359 16.8272 21.06 16.8234 22.4642C16.8197 23.8685 16.8623 24.894 16.9233 25.6415C17.0273 26.885 17.9708 27.8674 19.1632 27.9504C19.8817 28.0005 20.8669 28.023 22.2172 27.9658C23.5675 27.9086 24.5565 27.8013 25.2802 27.6916C26.4819 27.5065 27.507 26.481 27.6921 25.2797C27.8018 24.556 27.9077 23.5666 27.9663 22.2168C28.0249 20.8669 27.9986 19.8803 27.9518 19.1618Z" fill="#333B48"/>
</svg>
