<svg width="16" height="16" viewBox="0 0 24 24" fill="none" xmlns="http://www.w3.org/2000/svg">
<path d="M7.67177 2.06783C7.35949 2.1498 7.09795 2.30594 6.79739 2.58699C6.49291 2.87585 6.25871 3.30133 6.18844 3.69949C6.16112 3.84001 6.1455 4.55045 6.1455 5.46777V7.00183H4.94713C4.06885 7.00183 3.69021 7.01745 3.54969 7.05648C2.83925 7.24385 2.24983 7.83328 2.06246 8.54371C1.98439 8.82867 1.98439 15.1679 2.06246 15.4529C2.24983 16.1633 2.83925 16.7527 3.54969 16.9401C3.69412 16.9791 4.06495 16.9948 4.94713 16.9948H6.1455V18.5288C6.1455 19.4461 6.16112 20.1566 6.18844 20.2971C6.25871 20.6953 6.49291 21.1207 6.79739 21.4096C7.10186 21.6946 7.35949 21.8468 7.68738 21.9327C8.03479 22.0224 15.9667 22.0224 16.3141 21.9327C16.6615 21.8429 16.9074 21.6906 17.2236 21.3823C17.5398 21.0661 17.7389 20.7031 17.813 20.2971C17.8403 20.1527 17.856 19.4696 17.856 18.5288V16.9948H19.0699C20.2644 16.9948 20.2878 16.9948 20.5767 16.8972C21.2559 16.6669 21.7594 16.136 21.939 15.4529C22.0171 15.1679 22.0171 8.82867 21.939 8.54371C21.7516 7.83328 21.1622 7.24385 20.4518 7.05648C20.3113 7.01745 19.9326 7.00183 19.0582 7.00183H17.856V5.46777C17.856 4.55045 17.8403 3.84001 17.813 3.69949C17.7428 3.30133 17.5085 2.87585 17.2041 2.58699C16.8996 2.30204 16.642 2.1498 16.3141 2.06393C15.9784 1.97805 7.99576 1.97805 7.67177 2.06783ZM16.279 2.98905C16.3882 3.04761 16.56 3.18423 16.6576 3.29352C16.9699 3.64093 16.9699 3.64484 16.9894 5.42873L17.005 7.00183H12.0007H6.99646L7.01208 5.42873C7.0316 3.64484 7.0316 3.64093 7.34387 3.29352C7.51172 3.10616 7.72251 2.96954 7.94111 2.89927C7.99576 2.88366 9.84991 2.87195 12.0593 2.87585L16.0799 2.88366L16.279 2.98905ZM20.3425 7.94648C20.643 8.05968 20.9358 8.35244 21.049 8.65301C21.1349 8.87551 21.1349 8.89893 21.1349 11.9983C21.1349 15.0977 21.1349 15.1211 21.049 15.3436C20.9358 15.6442 20.643 15.9369 20.3425 16.0501C20.1317 16.1321 20.0497 16.136 18.988 16.136H17.856V14.6527C17.856 13.0561 17.8521 13.0171 17.653 12.8805C17.5749 12.8258 16.9816 12.818 12.0007 12.818C7.01989 12.818 6.42656 12.8258 6.34849 12.8805C6.14941 13.0171 6.1455 13.0561 6.1455 14.6527V16.136H5.01349C3.95175 16.136 3.86977 16.1321 3.65898 16.0501C3.35842 15.9369 3.06565 15.6442 2.95245 15.3436C2.86658 15.1211 2.86658 15.0977 2.86658 11.9983C2.86658 8.89893 2.86658 8.87551 2.95245 8.65301C3.06175 8.35634 3.35842 8.05968 3.64727 7.94648L3.86197 7.86451H11.989L20.1161 7.8606L20.3425 7.94648ZM16.9894 16.905C16.9777 19.9185 16.9699 20.1488 16.9035 20.3205C16.8098 20.5664 16.5288 20.8748 16.279 21.0075L16.0799 21.1129H12.0007H7.92159L7.72251 21.0075C7.47269 20.8748 7.19164 20.5664 7.09795 20.3205C7.0316 20.1488 7.02379 19.9185 7.01208 16.905L7.00037 13.6768H12.0007H17.0011L16.9894 16.905Z" fill="#384255"/>
<path d="M8.80026 15.4293C8.67144 15.5581 8.6246 15.6986 8.65973 15.847C8.67534 15.9055 8.7378 15.9992 8.80026 16.0617L8.90955 16.1749H9.91275H10.9159L11.0487 16.0421C11.158 15.9328 11.1814 15.8782 11.1814 15.7455C11.1814 15.6128 11.158 15.5581 11.0487 15.4488L10.9159 15.3161H9.91275H8.90955L8.80026 15.4293Z" fill="#384255"/>
<path d="M8.78592 17.1039C8.6532 17.2484 8.61807 17.4513 8.70004 17.6114C8.83276 17.8651 8.72346 17.8573 11.6277 17.8456L14.2625 17.8339L14.3796 17.7207C14.4811 17.6231 14.5006 17.5763 14.5006 17.4123C14.5006 17.2562 14.4811 17.2054 14.3874 17.1078L14.2742 16.9946H11.5847H8.89521L8.78592 17.1039Z" fill="#384255"/>
<path d="M8.85295 18.7082C8.61484 18.8526 8.58361 19.1727 8.78659 19.3835L8.89199 19.4928H11.5815H14.271L14.3842 19.3796C14.4779 19.282 14.4974 19.2313 14.4974 19.0751C14.4974 18.9112 14.4779 18.8643 14.3764 18.7667L14.2593 18.6535L11.6166 18.6418C9.08326 18.634 8.97006 18.6379 8.85295 18.7082Z" fill="#384255"/>
</svg>
