<svg width="16" height="16" viewBox="0 0 24 24" fill="none" xmlns="http://www.w3.org/2000/svg">
<path d="M5.71329 2.08995C5.58032 2.14079 5.40042 2.22683 5.31438 2.28549C4.93503 2.53578 4.62217 2.98944 4.53613 3.41572C4.50484 3.55651 4.49702 6.20806 4.50093 12.3011L4.51266 20.9832L4.62217 21.1983C4.77469 21.4955 5.04454 21.7575 5.33003 21.8905C5.54512 21.9883 5.6077 22 5.99878 22C6.39377 22 6.44461 21.9922 6.64407 21.8905C6.81614 21.8005 7.33628 21.3039 9.16655 19.4775C10.4376 18.2143 11.5365 17.1467 11.6108 17.1075C11.7946 17.0098 12.2092 17.0098 12.393 17.1075C12.4673 17.1467 13.5702 18.2143 14.8373 19.4775C16.6675 21.3 17.1877 21.8005 17.3597 21.8866C17.5592 21.9922 17.61 22 18.005 22C18.3883 22 18.4587 21.9883 18.6581 21.8944C18.9554 21.7575 19.2487 21.4759 19.3817 21.2022L19.4912 20.9832L19.5029 12.3011C19.5068 6.20806 19.499 3.55651 19.4677 3.41572C19.3621 2.89558 18.971 2.41064 18.4587 2.16034L18.1615 2.01564L12.0606 2.00782L5.95967 2L5.71329 2.08995ZM17.9268 3.25538C18.0793 3.33751 18.2045 3.47438 18.2553 3.61126C18.2866 3.68948 18.2983 6.28627 18.2983 12.1916C18.2983 20.0211 18.2944 20.6703 18.2319 20.7368C18.1928 20.7798 18.1145 20.8072 18.0285 20.8072C17.8994 20.8072 17.7665 20.682 15.5412 18.4685C12.9562 15.8913 13.0774 15.993 12.4438 15.86C11.9745 15.7583 11.5326 15.8131 11.0516 16.0203C10.8287 16.1181 10.6292 16.3097 8.4626 18.4685C6.28427 20.6351 6.10437 20.8072 5.97922 20.8072C5.90883 20.8072 5.81497 20.7798 5.77586 20.7407C5.70938 20.682 5.70547 20.3614 5.70547 12.1643V3.65037L5.79542 3.52131C5.90492 3.35706 6.05353 3.24755 6.21779 3.20845C6.29209 3.1928 8.92799 3.18107 12.0801 3.18107C17.3324 3.18889 17.8212 3.1928 17.9268 3.25538Z" fill="#384255"/>
</svg>
