<svg width="16" height="16" viewBox="0 0 24 24" fill="none" xmlns="http://www.w3.org/2000/svg">
<path d="M12.5871 4.35182V6.71678L12.0906 6.76368C10.1791 6.95523 8.49826 7.56503 6.89947 8.64783C4.59316 10.2114 2.92401 12.6233 2.27902 15.3283C2.02884 16.3916 2.02102 16.5128 2.00539 19.3937C1.99366 20.973 2.00148 22.0167 2.02493 21.9932C2.04448 21.9697 2.39238 21.1879 2.79501 20.2537C3.19764 19.3194 3.61981 18.393 3.72535 18.2015C4.27262 17.2086 5.05051 16.2274 5.88313 15.4769C7.59137 13.9328 9.63578 12.9868 11.8952 12.6897C12.1493 12.6585 12.4073 12.6311 12.4698 12.6311H12.5871L12.5949 14.9961L12.6066 17.3649L17.2975 13.5302C19.8774 11.4232 21.9922 9.68372 22 9.66808C22.0078 9.63681 12.7083 2.03769 12.6223 2.00641C12.6027 1.9986 12.5871 2.9524 12.5871 4.35182ZM17.1567 7.25622C18.7711 8.56574 20.0885 9.64854 20.0885 9.66026C20.0885 9.67199 18.6773 10.8291 16.9535 12.2363L13.8184 14.7928L13.8067 13.0846L13.7989 11.3724L13.064 11.3998C12.1806 11.431 11.4887 11.5053 10.8319 11.6382C7.90018 12.2285 5.28505 13.8859 3.50645 16.2821C3.24845 16.6339 3.25627 16.6574 3.38527 15.985C3.66281 14.5426 4.33907 13.0572 5.26941 11.8337C5.61341 11.3841 6.53203 10.4421 6.93856 10.1215C7.92754 9.34754 8.91652 8.81201 10.0619 8.42892C11.0196 8.11229 11.8874 7.96766 13.1265 7.91684L13.7989 7.89339V6.21251V4.53164L14.01 4.70363C14.1272 4.79745 15.5423 5.94279 17.1567 7.25622Z" fill="#384255"/>
</svg>
